<?xml version="1.0" encoding="utf-8"?>
<!-- Generator: Adobe Illustrator 19.2.1, SVG Export Plug-In . SVG Version: 6.00 Build 0)  -->
<svg version="1.1" id="Layer_1" xmlns="http://www.w3.org/2000/svg" xmlns:xlink="http://www.w3.org/1999/xlink" x="0px" y="0px"
	 viewBox="0 0 190.8 582" style="enable-background:new 0 0 190.8 582;" xml:space="preserve">
<style type="text/css">
	.st0{fill:#064F68;}
	.st1{fill:#E9F6FD;}
	.st2{fill:#CCE9F4;}
	.st3{fill:#AADAE1;}
	.st4{fill:#84BFCD;}
	.st5{fill:#5B5A5D;}
	.st6{fill:#737F82;}
	.st7{fill:#FFFFFF;}
	.st8{fill:#4E4D50;}
	.st9{fill:#9FD3E8;}
	.st10{fill:#B1DDEE;}
</style>
<path class="st0" d="M190.8,558.7c0,12.8-85.7,23.2-191.3,23.2s-191.3-10.4-191.3-23.2c0-12.8,100.5-23.2,191.3-23.2
	C107.6,535.5,190.8,545.9,190.8,558.7z"/>
<g>
	<g>
		<path class="st1" d="M179.9,382.1c-5.9,0-12.3-2.7-16.9-23.7S151.7,316,151.7,316c7.3,0,11.4-3.2,11.4-3.2
			c-5-2.3-15.9-10-23.2-19.6c-7.3-9.6-26-25.1-26-25.1s0-10,0-31s13.4-37.4,13.4-37.4c-9.1,0-13.4,8.2-13.4,8.2s0-0.5,0-44.2
			s22.1-63.3,22.1-63.3c-6.8-0.5-11.4,2.7-11.4,2.7c3.2-32.3,13.1-41.9,13.1-41.9c-36.4-9.6-56.8,11.8-56.8,11.8
			c-4.1-19.6,11.9-31,11.9-31c-18.7-4.1-34.1,1.4-34.1,1.4c0-28.7,11.4-38.3,11.4-38.3c-56.9,0-89.3,42.8-89.3,42.8
			C-21.5,29.9-16.4,14-16.4,14c-55.1,23.2-69.7,74.7-69.7,74.7c-3.6-8.7-4.1-28.3-4.1-28.3s-22.8,38.2-26.9,64.6
			c-4.1,26.4,3.6,102.3,3.6,102.3s-3.6-4.6-11.4-5.5c0,0,8.2,9.1,8.2,29.6c0,0-3.2-2.7-8.7-1.4c0,0,8.7,7.7,9.6,21
			c0,0-10,6.8-15.5,13.7c0,0-8.7,0.5-13.2,1.8c0,0,7.3,4.1,8.7,7.7c0,0-21.4,21.9-32.3,39.6c0,0,9.6-5.9,16.4-4.1
			c0,0-15,18.2-20,48.3c0,0,7.3-3.6,10.5-1.8c0,0-9.1,19.1-9.6,39.2l-10,5.9l7.7,5.5c0,0-5.9,24.6-7.3,38.7c0,0,4.6-4.6,8.2-5.9
			c0,0,5,11.8,11.8,21c6.8,9.1,22.3,16.9,31.4,16.9l17.1-0.7c-2.1,9.2-6.3,16.9-15.1,17.3l-1,1.6c-0.2,0-0.4,0-0.5,0
			c-0.2,2.7-5.6,3.2-7.1,5c-4.5,5.6-8,13.4-10.3,20.3c-1.7,5.1-0.9,5.1-2.1,10.3c-0.4,1.7-2.1,3.5-2.7,5.2
			c4.9-1.7,18.6-2.8,25.7-3.3l0.1,6.4c0,0,1.2,1.1,3.1,1.9c0.1,0,0.1,0,0.2,0c0.7,0.1,1.3,0.2,1.9,0.3c10.8-1,18.3,0.9,30.8-0.2
			c2.4-0.3,4.7-0.6,6.8-1.8c0.6-1.8,0.7-1.9,1-4.3c0.1-0.4,0.1-0.8,0.2-1.4c0.2,0,0.4-0.1,0.6-0.1c0.1,0,0.2-0.1,0.4-0.1
			c0.1,0,0.1,0,0.2,0c0.2,0,0.4,0,0.6-0.1c0.1-0.1,0.3-0.1,0.4,0c2.3-0.2,5.9-0.4,8.1-0.5c7.3,0,17,0.8,17,0.8
			c0.6-8.2,1.2-21,14.5-58.3l3.3-2c0,0,40.9,14.4,78.9-0.6c3,7.4,12.7,32.3,14.3,47.9c1.3,1.8,1.2,4.2,1.2,6.6
			c0,2.1,0.2,4.2,0.3,6.3c1.4-0.2,6.3-0.8,12.5-0.8c2.3,0.1,5.9,0.3,8.1,0.5c0.1,0,0.2,0,0.4,0c0.2,0,0.4,0,0.6,0.1
			c0.1,0,0.1,0,0.2,0c0.3,0,0.4,0,0.4,0.1c0.2,0,0.4,0.1,0.6,0.1c0.1,0.5,0.1,0.9,0.2,1.4c0.3,2.3,0.4,2.4,1,4.3
			c0.2,0.1,0.4,0.2,0.6,0.3c6.8-0.9,13.7-1,20.5-0.7c5.4,0.3,10.7,1.3,16,2.2c0,0.1,0,0.1,0,0.2c0.5,0.1,1.1,0.1,1.6,0.1
			c2.8,0.5,5.7,1,8.6,1.3c0.1-3.6,0-6.7,0-9.5c5.7,0.3,14,1.4,17.4,1.9c1.4,0.3,2.5,0.5,3.7,0.8c0.2,0,0.3,0.1,0.5,0.1c0,0,0,0,0,0
			c1.2,0.3,2.4,0.6,4.1,1.2c-0.3-3.1-0.2-3-0.6-6.9c-0.3-3-2.5-12.1-6.5-15.8c0,0,4.4,1.9,5.7,2.6c-4.3-5.8-6.4-14.2-19.9-19.9
			c0,0,2.5-1.2,4.7-1.5c-2.4-1.5-4.2-2-6.6-1.9c0.8-2.3,4.4-8.1,7.4-8.9c0,0-1.8-1.3-4.8-0.3c-1.1,0.6-2.2,1.2-3.3,2
			c-0.4,0.3-1,0-1.1-0.4c-0.9-3.5-1.6-7.1-2.1-10.6c27.3-1,31.1-15,31.1-15c2.3,1.8,2.3,5.9,2.3,5.9c11.8-15.5,10.5-31,10.5-31
			c2.7,0.5,5,2.3,5,2.3c1.4-23.7-5.9-64.2-5.9-64.2c3.6,1.8,5.9-0.5,5.9-0.5c-4.1-1.8-4.6-6.4-4.6-6.4
			C179,387.6,179.9,382.1,179.9,382.1z"/>
	</g>
	<path class="st2" d="M-80.7,554c0,0,1.1-11.5-2.7-19.8c0,0,7.1,0.5,8.3,19.3C-75.1,553.4-80.1,554-80.7,554z"/>
	<path class="st2" d="M-116.4,515.1l0-0.4C-116.4,514.9-116.4,515.1-116.4,515.1z"/>
	<path class="st2" d="M-109.8,553.1C-109.8,553.1-109.8,553.1-109.8,553.1c-0.1,0,0-0.1,0-0.2L-109.8,553.1z"/>
	<path class="st2" d="M-19.2,48.1C-21.4,29.9-16.4,14-16.4,14c-55.1,23.2-69.7,74.7-69.7,74.7c-3.6-8.7-4.1-28.3-4.1-28.3
		s-22.8,38.2-26.9,64.6c-4.1,26.4,3.6,102.3,3.6,102.3s-3.6-4.6-11.4-5.5c0,0,8.2,9.1,8.2,29.6c0,0-3.2-2.7-8.7-1.4
		c0,0,8.7,7.7,9.6,21c0,0-10,6.8-15.5,13.7c0,0-8.7,0.5-13.2,1.8c0,0,7.3,4.1,8.7,7.7c0,0-21.4,21.9-32.3,39.6c0,0,9.6-5.9,16.4-4.1
		c0,0-15,18.2-20,48.3c0,0,7.3-3.6,10.5-1.8c0,0-9.1,19.1-9.6,39.2l-10,5.9l7.7,5.5c0,0-5.9,24.6-7.3,38.7c0,0,4.6-4.6,8.2-5.9
		c0,0,5,11.8,11.8,21c6.8,9.1,22.3,16.9,31.4,16.9l1.2-0.2c-0.5,3.1-1.1,6.3-1.9,9.4c-0.1,0.4-0.7,0.7-1.1,0.4
		c-1.1-0.7-2.1-1.4-3.3-2c-3-1-4.8,0.3-4.8,0.3c3,0.7,6.6,6.6,7.4,8.9c-2.4-0.2-4.2,0.4-6.6,1.9c2.3,0.3,4.7,1.5,4.7,1.5
		c-13.5,5.8-15.6,14.1-19.9,19.9c1.3-0.8,5.7-2.6,5.7-2.6c-4,3.7-6.2,12.8-6.5,15.8c-0.4,3.9-0.4,3.8-0.6,6.9
		c3.6-1.2,5.3-1.4,8.2-2.1c4.5-0.7,17-2.4,21.6-1.9l-0.7,8.9c0,0,0.1,0,0.2,0c2.4-0.7,4.3-0.6,6.4-0.8c0-2.4,0.2-4.9,0.4-7.3
		c-0.1-4.2,0.4-7.9,1.2-12.2c0-0.1,0.1-0.3,0.1-0.4c1.7-5.8,4.6-9,6.5-11.1c0.6-0.7,1.2-1.5,1.6-2.3c1.1-1.5,2.3-3.5,3.2-5.9
		c1.9-5.1,1.1-16.3-2.7-27.3c4,5.7,7.6,10.7,9.3,12.4l-0.1-14c0,0,7.3,7.3,13.8,12.8c3.1,2.7,7,6.3,9.8,7.7c0.2,0.1,0.4-1.2,0.6,0.8
		h0c0,0,0.1-0.4,0.1-0.4c3.7,2.1,7.5,3.7,11.1,6c0.4,0.2,0.8,0.4,1.1,0.6c1.6,1.1,4.5,2.4,7.2,3.8l2.5,29.1
		c2.2-30.6,19.6-59.9,19.6-59.9l-0.6-0.2c-5.4-1.7-44.8-15.3-68.2-64.1c-1.5-3.2,8.7,3.6,8.7,3.6c-9.6-23.2-13.2-60.6-13.2-60.6
		c3.2,2.7,6.4,3.2,6.4,3.2c-6.8-19.1-9.6-42.8-9.6-64.2c-1.8-115.3,40.8-141.7,40.8-141.7c-7.3-2.7-15-2.5-15-2.5
		c8.4-20.3,36.4-48.5,36.4-48.5c-7.5,0.5-36.9,8.4-36.9,8.4c24.4-63.6,49-80.4,49-80.4c-1.8,15.3,4.1,31.4,4.1,31.4
		c52.8-65.4,95.3-62.3,95.3-62.3c3.1-6.6,6.7-11,6.7-11C13.2,5.3-19.2,48.1-19.2,48.1z"/>
	<path class="st2" d="M130.2,553.6c0,0-0.5-16.5-4.3-24.8c0,0,9.8,6,9.7,25.1C135.7,553.9,130.8,553.6,130.2,553.6z"/>
	<path class="st3" d="M-124.6,468.7c6.5-63.2,8.2-186.8,8.2-186.8c-14,27.7-25.3,77.9-25.3,77.9l2.7,10.9l-6.2-2.7
		c-9.9,34.3-3.2,80.2-1,93.2C-139.8,466.1-132.3,467.8-124.6,468.7z"/>
	<path class="st3" d="M-137.9,467.3c2,10.1,4.1,19.9,6.4,29.9c1.7,0.3,3.6,0.1,3.6,0.1c1.6-6.1,1.8-15.6,3-27.2
		C-129.3,469.6-133.7,468.8-137.9,467.3z"/>
	<path class="st2" d="M76.3,521.8c-0.4,0.1-0.6-0.1-0.8-0.3c-0.7,0.1-1.3,0.3-1.6,0.4c0,0,0,0,0,0c9.4-6.8,10.3-14.1,10.3-14.1
		c-6.2,2.8-12.9,3.9-16.1,4.2c21.7-18.8,25.3-53.8,25.3-53.8c-8.9,10.9-21.5,20.2-31.3,26.3l0,0c0,0-6.5,3.7-12.6,6.5
		c-0.3,0-0.5,0-0.7,0.3c-3.1,1.4-6,2.6-7.7,2.9c0,0,5,9.3,7.1,14.3l-0.4,0.3c0,0,7.3,17.2,9.9,33.9c0.3,2.8,0.5,5.3,0.6,7.2
		c0.1,2.4,0.3,4.1,0.3,4.1c9.6-1.4,23.2,0,23.2,0c-0.1,1.6,0.8,5.3,1,6c4.6-0.6,9.2-0.9,13.8-0.9C96.6,542.9,95.9,516.1,76.3,521.8z
		"/>
	<path class="st4" d="M-125.1,473.6c-15.1-2.6-28.8-19.9-28.8-19.9c11,11.7,24.7,13.3,24.7,13.3c1.8-13.4-9.2-44-9.2-44
		c8.2,10.2,12.7,22,15.1,31.6L-125.1,473.6z"/>
	<path class="st3" d="M-90.9,449.9c0,0,11.9,20.9,22.3,30c11.2,9.8,21.7,23.6,26.1,31.9c0,0,5.6-13.1,8.7-17.7
		C-33.7,494.2-67.1,484.4-90.9,449.9z"/>
	<path class="st3" d="M64.1,490.7c1.7-2.3,3.5-4.5,5.3-6.7c3-3.6,6.3-7.1,8.8-11.1c-4.3,3.2-9,6-13.9,8.9c-14.1,9.6-24,12.3-24,12.3
		c3.1,4.6,8.7,17.7,8.7,17.7c2.7-5.1,7.6-12.1,13.5-19.1C63,492.1,63.6,491.4,64.1,490.7z"/>
	<path class="st5" d="M-95.4,138.2c-1.3,0.1-5.4,0.2-5.4,0.2c-37.6,2.6-65.2-26.5-65.2-26.5s-2.5,22.7,13.8,42.6
		c16.3,19.9,49.4,23.3,49.4,23.3c1.1,4.7-1.3,15-1.3,15s9.7-10.7,12.1-31C-90.2,147.8-94.6,138.2-95.4,138.2"/>
	<path class="st6" d="M-95.4,138.2c-1.2,0.1-5.4,0.2-5.4,0.2c-37.6,2.6-65.2-26.5-65.2-26.5s17.2,49.7,74.5,45.7
		C-91.5,157.7-90,148.5-95.4,138.2"/>
	<path class="st5" d="M92.1,138.2c1.3,0.1,5.4,0.2,5.4,0.2c37.6,2.6,65.2-26.5,65.2-26.5s2.5,22.7-13.8,42.6
		c-16.3,19.9-49.4,23.3-49.4,23.3c-1.1,4.7,1.3,15,1.3,15s-9.7-10.7-12.1-31C86.9,147.8,91.3,138.2,92.1,138.2"/>
	<path class="st6" d="M92.1,138.2c1.2,0.1,5.4,0.2,5.4,0.2c37.6,2.6,65.2-26.5,65.2-26.5s-17.2,49.7-74.5,45.7
		C88.3,157.7,86.7,148.5,92.1,138.2"/>
	<path class="st2" d="M-115,306.5c0,0-27,97,0,159.2V306.5z"/>
	<path class="st2" d="M153.8,460c-13.3,10.2-27.2,10.8-27.2,10.8c-0.6-13.3,13.9-42.3,13.9-42.3c-3.3,2-6,4.3-8.1,6.9l-0.1-9.7
		l10.5-8.7l-8.4-6.8l10.7-43.1l-10.3,6.8c0,0-3.2-61.3-0.9-87.7c0,0-13-13-19.4-18.2c0,0,1.2,18.9,2.6,49
		c5.8,24.2,14.9,74.2,3.6,118.2c0.1,8.9,0.2,18,0.3,27.1c0,0,5.6,19.5,7.4,33.1c0,0,1.8,0.5,4.6,0.1l-0.2-20.9
		C146.9,470.4,153.8,460,153.8,460z"/>
	<ellipse class="st2" cx="42.3" cy="272.1" rx="14.8" ry="18.7"/>
	<ellipse class="st7" cx="42.6" cy="267.1" rx="14.6" ry="18.5"/>
	<path class="st8" d="M38.7,257.5c-0.1,0.5-0.2,0.9-0.2,1.4c0,2.6,1.7,4.7,3.8,4.7c1.9,0,3.4-1.7,3.7-3.9c1.2,1.6,1.9,3.7,1.9,6
		c0,4.8-3.1,8.7-7,8.7c-3.9,0-7-3.9-7-8.7C33.9,262,35.9,258.7,38.7,257.5z"/>
	<ellipse class="st2" cx="-28.7" cy="272.1" rx="14.8" ry="18.7"/>
	<ellipse class="st7" cx="-28.5" cy="267.1" rx="14.6" ry="18.5"/>
	<path class="st8" d="M-29.6,257.5c-0.1,0.5-0.2,0.9-0.2,1.4c0,2.6,1.7,4.7,3.8,4.7c1.9,0,3.4-1.7,3.7-3.9c1.2,1.6,1.9,3.7,1.9,6
		c0,4.8-3.1,8.7-7,8.7c-3.9,0-7-3.9-7-8.7C-34.4,262-32.4,258.7-29.6,257.5z"/>
	<path class="st5" d="M92.4,249.6c-6.6-1-18.1-2.1-32-1.4c-18,0.9-33.4,3.4-42.6,4.9c-2.8,0.4-4.9,0.8-6.6,1l-1.8,0.2
		c-2,0.3-3.3,0.5-4.5,0.5c-1.1-0.1-2.5-0.2-4.5-0.5l-1.8-0.2c-1.6-0.2-3.8-0.6-6.6-1c-9.2-1.5-24.6-4-42.6-4.9
		c-13.8-0.7-25.4,0.4-32,1.4c0,0-7,0.9-13.1,3.4l1.1,7.7c0,0,6.4-1.5,12.6-2.3c1.2,10.8,3.4,24.7,3.4,24.7l0,0.4
		c0.2,0.7,0.3,1.4,0.5,2.1c1.3,5.5,2.6,8.7,7.7,10.6c5,1.9,16.9,3.7,28.9,4.3c4.5,0.2,9.5,0,14.6-0.8c7.6-1.1,14.5-3.2,17.1-5.1
		c3.8-2.8,5.9-9.9,7.2-14.6l0.4-1.4c0.5-1.6,0.9-3.3,1.3-4.9c0.6-2.3,1.2-4.8,1.7-5.6c0.1-0.1,0.5-0.7,2.2-0.9
		C3.8,267,4.4,267,5,267c0.6,0,1.2,0,1.7,0.1c1.7,0.2,2.1,0.8,2.2,0.9c0.5,0.8,1.1,3.3,1.7,5.6c0.4,1.6,0.8,3.3,1.3,4.9l0.4,1.4
		c1.4,4.7,3.4,11.8,7.2,14.6c2.6,1.9,9.5,4,17.1,5.1c5.1,0.7,10.2,1,14.6,0.8c12-0.6,23.9-2.4,28.9-4.3c5.1-1.9,6.4-5.1,7.7-10.6
		c0.2-0.7,0.3-1.4,0.5-2.1l0-0.4c0,0,2.2-13.9,3.4-24.7c6.2,0.8,12.6,2.3,12.6,2.3l1.1-7.7C99.5,250.5,92.4,249.6,92.4,249.6z
		 M-6.9,266.2l0,0.1c-0.3,2.5-1.9,15.1-4.6,19.4c-2.6,4.1-3.5,5.2-11.5,6.5c-0.3,0.1-0.7,0.1-1.1,0.2c-8.6,1.3-24.4,1.5-33.2-0.2
		l-0.6-0.1c-9-1.7-12.1-2.5-13.1-5.3c-1.3-3.8-3.7-21.2-3.8-25c-0.1-2.8,2.5-4.1,3.3-4.3c0.5-0.1,1.2-0.3,2.2-0.4
		c6.3-0.9,20.1-1.8,26.6-1.5c8.2,0.4,28.4,3.2,32.9,5.2C-6.4,262.3-6.6,263.6-6.9,266.2z M80.9,286.8c-0.9,2.8-4.1,3.5-13.1,5.3
		l-0.6,0.1c-8.8,1.7-24.6,1.5-33.2,0.2c-0.4-0.1-0.7-0.1-1.1-0.2c-8-1.4-8.9-2.4-11.5-6.5c-2.7-4.3-4.3-16.9-4.6-19.4l0-0.1
		c-0.3-2.6-0.5-3.9,2.9-5.4c4.5-2,24.7-4.9,32.9-5.2c6.5-0.3,20.3,0.6,26.6,1.5c1,0.1,1.7,0.3,2.2,0.4c0.7,0.2,3.4,1.5,3.3,4.3
		C84.5,265.5,82.1,283,80.9,286.8z"/>
	<path class="st9" d="M-24.2,230.2c0,0-16.5-7.9-25.9,6.7c0,0-1-14.5,12.3-16.1C-24.4,219.2-24.2,230.2-24.2,230.2z"/>
	<path class="st9" d="M-30.3,208.9c0,0-15.3-7.2-22.2,6.6c0,0-2.3-12.1,8.6-15C-33,197.6-30.3,208.9-30.3,208.9z"/>
	<path class="st9" d="M34.8,239.1c0,0,12.8-6.1,20.1,5.2c0,0,0.8-11.3-9.6-12.5C35,230.5,34.8,239.1,34.8,239.1z"/>
	<path class="st9" d="M43.9,218.9c0,0,12.9-2.1,15.2,9.7c0,0,4.3-8.5-3.2-13.1C48.4,211,43.9,218.9,43.9,218.9z"/>
	<path class="st10" d="M-25.3,345.1c0,0,9-6.1,14.4-6.9c0,0,1.2,11.5,6.5,17.1c0,0,11.4-10.3,22.8-11c0,0,2.9,6.3,7.7,8.6l0,0.1
		c1.7,1.1,3.8,2.1,5.8,2.6c0,0,6.5-3.9,8.4-11.1c0,0,0.6,15.1-8.9,23.4c0,0-7.3-3.5-12.5-9.2c-1.6-1.5-3.2-3.3-4-4.8
		c0,0-16.8,11.9-17.4,18.6c0,0-12.1-11.8-16.2-20.9c0,0-8.1,2.6-10.3,4.2c0,0-6.5-10.6-7.8-20.2C-37,335.6-29.2,343-25.3,345.1z"/>
	<path class="st5" d="M5.2,315.3c-0.7-0.1,17,1.2,34.4,0.6c0,0,0.9-3.3,2.3-5.1c0,0-0.3,5.6,1.3,6.7c0,0-8.7,3.4-17.5,3.4
		c0,0,9.5-1.6,12.8-3.2C38.4,317.6,21,318.6,5.2,315.3z"/>
</g>
</svg>
